<svg width="24" height="24" viewBox="0 0 24 24" fill="none" xmlns="http://www.w3.org/2000/svg">
<g id="hugeicons:disability-02">
<path id="Vector" d="M11.5333 10.2L9.66667 9.3L7.33333 12M15.2667 18.7347C14.7409 19.437 14.0494 20.0087 13.2494 20.4026C12.4493 20.7964 11.5636 21.0012 10.6653 21C7.53587 21 5 18.5655 5 15.5622C5 14.7747 5.15307 14.0259 5.46667 13.35M12.6067 8.4L11.9029 10.0614C11.188 11.7525 10.8305 12.5976 11.2375 13.1988C11.6444 13.8 12.574 13.8 14.4332 13.8C15.0809 13.8 15.7063 13.638 16.0665 14.2464L19 19.2M13.8667 6.6C13.3716 6.6 12.8968 6.41036 12.5467 6.07279C12.1967 5.73523 12 5.27739 12 4.8C12 4.32261 12.1967 3.86477 12.5467 3.52721C12.8968 3.18964 13.3716 3 13.8667 3C14.3617 3 14.8365 3.18964 15.1866 3.52721C15.5367 3.86477 15.7333 4.32261 15.7333 4.8C15.7333 5.27739 15.5367 5.73523 15.1866 6.07279C14.8365 6.41036 14.3617 6.6 13.8667 6.6Z" stroke="#0762AD" stroke-width="2" stroke-linecap="round" stroke-linejoin="round"/>
</g>
</svg>
