<svg width="25" height="24" viewBox="0 0 25 24" fill="none" xmlns="http://www.w3.org/2000/svg">
<path id="Vector" d="M15.0115 21.4347C15.0115 20.8882 15.0191 20.3408 15.0099 19.7942C14.9993 19.1584 14.8538 18.5538 14.4706 18.037C14.287 17.7889 14.3647 17.7293 14.6214 17.6927C15.1494 17.6164 15.6674 17.5003 16.177 17.3339C18.0411 16.724 19.1244 15.4339 19.5129 13.5293C19.7133 12.5476 19.7315 11.5598 19.5739 10.5735C19.4596 9.85673 19.1328 9.22237 18.694 8.65137C18.5462 8.459 18.515 8.28343 18.5622 8.05366C18.7336 7.20784 18.745 6.3628 18.4799 5.52996C18.3291 5.05515 18.23 4.99484 17.7265 5.09561C16.9045 5.25973 16.1603 5.61393 15.4762 6.08569C15.1913 6.28188 14.9322 6.32616 14.5925 6.24829C12.8724 5.85363 11.1461 5.85897 9.42677 6.26127C9.14414 6.32768 8.9217 6.29867 8.68021 6.13226C8.00679 5.66813 7.28308 5.30477 6.47863 5.12232C5.83872 4.97728 5.74045 5.02767 5.56219 5.66661C5.3466 6.44066 5.35041 7.22617 5.5142 8.00709C5.57209 8.2819 5.5142 8.47656 5.35041 8.70557C4.77602 9.50482 4.41493 10.3842 4.4195 11.3957C4.42331 12.211 4.43321 13.0194 4.62899 13.8186C5.09369 15.714 6.29884 16.8805 8.13934 17.4171C8.58879 17.5484 9.05273 17.6316 9.51437 17.7156C9.72158 17.753 9.79624 17.795 9.64083 17.9896C9.38182 18.3141 9.24318 18.6981 9.15252 19.0973C9.09843 19.3362 8.96131 19.4607 8.73582 19.5408C7.48343 19.9859 6.42149 19.6431 5.6955 18.5271C5.30623 17.9293 4.87886 17.3889 4.14983 17.1935C4.10107 17.1805 4.05308 17.1591 4.00356 17.153C3.7415 17.1232 3.4086 17.0278 3.28748 17.3186C3.17168 17.5942 3.49545 17.711 3.68285 17.8454C4.28009 18.2744 4.72193 18.8355 4.94971 19.5233C5.49058 21.1576 7.13225 21.5988 8.32979 21.4317C9.16319 21.3149 9.06187 21.2569 9.07025 22.0698C9.07482 22.4767 9.07939 22.8836 9.06872 23.2905C9.05577 23.8241 8.78534 24.0592 8.25818 23.9767C8.04868 23.9439 7.84224 23.8638 7.64569 23.779C3.79254 22.1111 1.34338 19.2271 0.384282 15.1446C-0.424742 11.7026 0.137461 8.43381 2.07394 5.47271C4.06146 2.43069 6.87705 0.566547 10.5009 0.108527C14.6214 -0.41209 18.1097 0.948995 20.8963 4.00628C22.7216 6.00859 23.7546 8.41855 23.9763 11.1239C24.2558 14.5362 23.3714 17.6209 21.1767 20.2904C19.8572 21.895 18.2209 23.0607 16.3012 23.8348C16.1839 23.8821 16.0643 23.9302 15.9416 23.9584C15.3124 24.1027 15.0191 23.8744 15.0122 23.2279C15.0054 22.6302 15.0107 22.0324 15.0107 21.4347H15.0115Z" fill="#3F83B5"/>
</svg>
