<svg width="25" height="24" viewBox="0 0 25 24" fill="none" xmlns="http://www.w3.org/2000/svg">
<path id="Union" d="M17.7715 0C17.9695 0.0417603 18.1722 0.0409658 18.373 0.0517578C19.5033 0.113317 20.4792 0.578204 21.3711 1.23535C22.6786 2.19912 23.5114 3.48265 23.8896 5.0625C23.9694 5.39515 23.9762 5.7354 23.9922 6.07227C24.0077 6.39884 24.0244 6.7262 24.0244 7.05371H24.0254C24.0221 10.479 24.0165 13.9048 24.0264 17.3301C24.0301 18.5963 23.7744 19.7853 23.1152 20.8779C22.2348 22.3377 20.9601 23.2716 19.334 23.7539C18.8071 23.9101 18.2723 23.9627 17.7295 23.9707C14.047 24.0251 10.3642 23.986 6.68164 23.9893C6.08046 23.9897 5.4714 23.9855 4.88477 23.8096C2.50079 23.0935 0.908438 21.5769 0.202148 19.1689C0.0811364 18.7562 0.0925188 18.3255 0.0507812 17.9023C0.047028 17.8643 0.0530876 17.8243 0.0263672 17.791V6.17969C0.0812346 5.93868 0.080089 5.69063 0.0917969 5.44727C0.132153 4.60557 0.449563 3.85748 0.867188 3.15137C1.58561 1.93672 2.60921 1.05285 3.8916 0.466797C4.48899 0.19373 5.11641 0.0640964 5.77246 0.0429688C6.07321 0.0331178 6.37593 0.0468771 6.6748 0H17.7715ZM12.0742 2.23828C10.42 2.23828 8.76555 2.23965 7.11133 2.2373C6.69646 2.23684 6.28478 2.26293 5.87695 2.34082C4.65076 2.57499 3.64029 3.1391 2.96875 4.22949C2.42299 5.11629 2.24219 6.09383 2.24219 7.11621C2.24313 10.3385 2.24476 13.5609 2.24805 16.7832C2.24852 17.158 2.2622 17.5327 2.32129 17.9033C2.51277 19.1097 2.98338 20.1606 4.02148 20.8818C4.84277 21.4524 5.77836 21.6925 6.75781 21.7197C10.1513 21.814 13.5464 21.7494 16.9404 21.7471C17.3534 21.7466 17.766 21.7124 18.1729 21.6289C19.6962 21.3169 20.8307 20.5166 21.4248 19.0391C21.6825 18.3976 21.8001 17.7295 21.8359 17.0469L21.8467 16.7529C21.9086 13.5693 21.8799 10.3858 21.8682 7.20215C21.8668 6.85117 21.8566 6.5005 21.7988 6.15234C21.6097 5.0094 21.1705 3.99848 20.2451 3.25293C19.3441 2.52684 18.2954 2.23633 17.1533 2.23633H12.0742V2.23828ZM12.0352 5.76074C15.4097 5.77164 18.1944 8.57113 18.1914 11.9492C18.1886 15.3618 15.4018 18.1329 11.9834 18.123C8.56478 18.113 5.82075 15.3544 5.82715 11.9336C5.83351 8.62293 8.4451 5.92262 11.7168 5.76758L12.0352 5.76074ZM12.0029 7.97363C9.83712 7.97604 8.04753 9.77674 8.05176 11.9482C8.05607 14.058 9.73417 15.7948 11.8164 15.8955L12.0195 15.9004C14.1905 15.8938 15.9884 14.0919 15.9795 11.9316C15.97 9.76912 14.1631 7.97129 12.0029 7.97363ZM18.4434 4.21387C19.216 4.214 19.8381 4.83898 19.8369 5.61523L19.8291 5.75879C19.756 6.46478 19.1611 7.01021 18.4326 7.00977C17.6597 7.0092 17.0343 6.37915 17.0381 5.60547C17.042 4.82863 17.6626 4.21434 18.4434 4.21387Z" fill="#3F83B5"/>
</svg>
