<svg width="56" height="56" viewBox="0 0 56 56" fill="none" xmlns="http://www.w3.org/2000/svg">
<g id="&#225;&#132;&#133;&#225;&#133;&#169;&#225;&#132;&#128;&#225;&#133;&#169;_&#225;&#132;&#134;&#225;&#133;&#165;&#225;&#134;&#186;&#225;&#132;&#140;&#225;&#133;&#162;&#225;&#134;&#188;&#225;&#132;&#139;&#225;&#133;&#181;&#225;&#132;&#137;&#225;&#133;&#161;&#225;&#132;&#140;&#225;&#133;&#161;&#225;&#132;&#142;&#225;&#133;&#165;&#225;&#132;&#133;&#225;&#133;&#165;&#225;&#134;&#183; &#225;&#132;&#139;&#225;&#133;&#167;&#225;&#134;&#171;&#225;&#132;&#137;&#225;&#133;&#166;&#225;&#132;&#131;&#225;&#133;&#162;&#225;&#132;&#146;&#225;&#133;&#161;&#225;&#134;&#168;&#225;&#132;&#128;&#225;&#133;&#173;_&#225;&#132;&#135;&#225;&#133;&#161;&#225;&#134;&#188;&#225;&#132;&#145;&#225;&#133;&#162;&#225;&#132;&#146;&#225;&#133;&#167;&#225;&#134;&#188; 1">
<path id="Vector" d="M46.7275 8.39298C41.5016 8.0749 36.6106 6.81826 32.5226 4.77538C30.4618 3.75394 29.7584 3.35186 28.7874 2.6653C28.3517 2.34722 27.9496 2.09635 27.8656 2.11203C27.7984 2.11203 27.2294 2.4973 26.5754 2.96658C22.4045 5.93122 15.8715 7.99202 9.27248 8.3941L7.39648 8.5117V17.2051C7.39648 27.657 7.53088 29.2989 8.7528 33.3365C10.2435 38.2275 12.572 42.0971 16.2736 45.8323C19.3726 48.965 22.2869 51.0751 26.3245 53.1023L27.8656 53.8896L29.5411 53.1023C31.4675 52.2141 33.9136 50.7402 36.0069 49.1823C37.9837 47.7251 41.5677 44.0728 42.9587 42.1307C45.1528 39.0317 47.1632 34.3747 47.917 30.6395C48.5195 27.6581 48.6035 25.9154 48.6035 17.1223V8.51283L46.7275 8.39522V8.39298ZM42.9755 36.2496L38.0173 44.9767L27.9664 44.9431L17.9155 44.8927L13.0581 36.3493C10.3779 31.6419 8.15024 27.6391 8.11664 27.4375C8.06624 27.2034 8.33392 26.5493 8.8704 25.5951C11.685 20.6032 17.5302 10.3183 17.715 10.0002L17.9659 9.63171L28.0168 9.66531L38.0845 9.7157L38.7038 10.8043C39.0555 11.4069 41.2664 15.2933 43.6285 19.4642C45.9906 23.6351 47.9338 27.153 47.9338 27.2695C47.9338 27.4039 45.7061 31.4403 42.9755 36.2474V36.2496Z" fill="white"/>
<path id="Vector_2" d="M40.9818 19.4825L35.7055 16.3835C32.808 14.6744 30.2779 13.2172 30.0775 13.1512C29.877 13.0672 29.3405 12.7827 28.888 12.4982C28.4187 12.2137 27.9831 11.9785 27.9002 11.9785C27.8173 11.9785 24.8851 13.6708 21.384 15.7305L15.0191 19.4825L14.9687 27.2721L14.9351 35.0449L21.4008 38.8473L27.8834 42.6329L28.9888 42.0136C29.5914 41.6619 30.1783 41.3438 30.2623 41.3102C30.3631 41.2766 32.8248 39.8531 35.757 38.144L41.0669 35.0281L41.0333 27.2553L40.9829 19.4825H40.9818ZM23.6285 30.9737V26.2832L21.216 24.6076C19.8765 23.7027 18.7867 22.8996 18.7867 22.8156C18.7867 22.7484 19.9594 22.698 21.3829 22.698H23.9791V30.9054H32.0195L32.0027 26.8353L31.9859 22.782L34.5989 22.7316C36.0392 22.7148 37.2119 22.7484 37.2119 22.8156C37.2119 22.8996 36.1064 23.687 34.7826 24.6076L32.3533 26.2496V30.9065L31.7216 31.4038C31.1527 31.8395 31.1583 31.8283 30.1088 32.582C30.008 32.6324 29.5119 32.992 28.9866 33.3694C28.2283 33.9126 28.4837 33.7289 27.8979 34.0896C27.8263 34.1332 26.8429 33.3862 25.7375 32.5316" fill="white"/>
</g>
</svg>
