<svg width="42" height="52" viewBox="0 0 42 52" fill="none" xmlns="http://www.w3.org/2000/svg">
<g id="Group 26">
<path id="Vector" d="M39.4013 6.30855C34.1661 5.98911 29.2663 4.72709 25.171 2.67546C23.1065 1.64965 22.4019 1.24585 21.4291 0.556349C20.9927 0.236907 20.5899 -0.0150472 20.5057 0.000699907C20.4384 0.000699907 19.8684 0.38763 19.2132 0.858919C15.0348 3.83625 8.49019 5.90588 1.87935 6.30968L0 6.42778V15.1584C0 25.655 0.13464 27.304 1.35874 31.3589C2.85213 36.2709 5.18477 40.157 8.89299 43.9082C11.9976 47.0543 14.917 49.1734 18.9618 51.2093L20.5057 52L22.1842 51.2093C24.1141 50.3173 26.5645 48.8371 28.6615 47.2725C30.6419 45.8091 34.2323 42.1412 35.6258 40.1908C37.8238 37.0785 39.8378 32.4016 40.5929 28.6504C41.1965 25.6562 41.2807 23.906 41.2807 15.0752V6.42891L39.4013 6.3108V6.30855ZM35.6426 34.2845L30.6755 43.0489L20.6067 43.0151L10.5378 42.9645L5.67172 34.3846C2.98677 29.6571 0.755107 25.637 0.721447 25.4346C0.670957 25.1995 0.939115 24.5426 1.47655 23.5843C4.29615 18.5711 10.1519 8.24208 10.337 7.92264L10.5883 7.55258L20.6572 7.58632L30.7429 7.63694L31.3633 8.73024C31.7156 9.33538 33.9305 13.2384 36.2968 17.4272C38.6631 21.6159 40.6097 25.1489 40.6097 25.2659C40.6097 25.4008 38.3781 29.4546 35.6426 34.2822V34.2845Z" fill="white"/>
<path id="Vector_2" d="M33.6685 17.3437L28.3728 14.231C25.4647 12.5144 22.9253 11.0508 22.724 10.9844C22.5228 10.9001 21.9844 10.6143 21.5302 10.3286C21.0592 10.0429 20.6219 9.80664 20.5387 9.80664C20.4556 9.80664 17.5126 11.5064 13.9986 13.5752L7.61019 17.3437L7.5596 25.1676L7.52588 32.9747L14.0154 36.7938L20.5219 40.5961L21.6314 39.974C22.2362 39.6208 22.8252 39.3013 22.9095 39.2676C23.0107 39.2338 25.4815 37.804 28.4245 36.0874L33.7539 32.9578L33.7202 25.1508L33.6696 17.3437H33.6685ZM16.2513 28.8855V24.1743L13.83 22.4914C12.4855 21.5825 11.3917 20.7759 11.3917 20.6915C11.3917 20.624 12.5687 20.5734 13.9975 20.5734H16.6032V28.8169H24.6733L24.6564 24.7289L24.6395 20.6578L27.2621 20.6071C28.7078 20.5903 29.8847 20.624 29.8847 20.6915C29.8847 20.7759 28.7752 21.5667 27.4465 22.4914L25.0083 24.1406V28.818L24.3743 29.3175C23.8032 29.7551 23.8088 29.7439 22.7555 30.5009C22.6543 30.5516 22.1564 30.9127 21.6291 31.2918C20.8681 31.8374 21.1244 31.6529 20.5365 32.0151C20.4645 32.059 19.4776 31.3086 18.3681 30.4503" fill="white"/>
</g>
</svg>
