<svg width="21" height="24" viewBox="0 0 21 24" fill="none" xmlns="http://www.w3.org/2000/svg">
<g id="Group 26">
<path id="Vector" d="M19.1589 2.91164C16.7426 2.76421 14.4812 2.18173 12.591 1.23483C11.6382 0.761377 11.313 0.575007 10.864 0.256776C10.6626 0.109342 10.4766 -0.00694488 10.4378 0.000323034C10.4067 0.000323034 10.1437 0.178906 9.84125 0.396424C7.91278 1.77058 4.89218 2.72579 1.84103 2.91216L0.973633 2.96667V6.99621C0.973633 11.8408 1.03577 12.6018 1.60075 14.4733C2.29 16.7404 3.3666 18.534 5.07809 20.2653C6.51097 21.7174 7.85841 22.6954 9.72525 23.635L10.4378 24L11.2125 23.635C12.1032 23.2234 13.2342 22.5402 14.202 21.8181C15.116 21.1427 16.7731 19.4498 17.4163 18.5496C18.4308 17.1131 19.3603 14.9546 19.7088 13.2232C19.9874 11.8413 20.0263 11.0335 20.0263 6.95779V2.96719L19.1589 2.91268V2.91164ZM17.4241 15.8236L15.1316 19.8687L10.4844 19.8531L5.83725 19.8298L3.59135 15.8698C2.35214 13.6879 1.32214 11.8325 1.30661 11.739C1.28331 11.6305 1.40707 11.3274 1.65512 10.8851C2.95647 8.57127 5.65911 3.80404 5.74456 3.6566L5.86056 3.48581L10.5077 3.50138L15.1626 3.52474L15.449 4.02934C15.6116 4.30864 16.6338 6.11004 17.726 8.0433C18.8181 9.97657 19.7166 11.6072 19.7166 11.6612C19.7166 11.7235 18.6866 13.5944 17.4241 15.8226V15.8236Z" fill="#3F83B5"/>
<path id="Vector_2" d="M16.5131 8.00501L14.0689 6.56838C12.7267 5.77608 11.5547 5.1006 11.4618 5.06997C11.3689 5.03103 11.1204 4.89915 10.9108 4.76728C10.6934 4.6354 10.4916 4.52637 10.4532 4.52637C10.4148 4.52637 9.05652 5.31088 7.43467 6.26569L4.48618 8.00501L4.46283 11.6161L4.44727 15.2193L7.44245 16.982L10.4454 18.7369L10.9575 18.4498C11.2366 18.2867 11.5085 18.1393 11.5474 18.1237C11.5941 18.1081 12.7345 17.4482 14.0928 16.6559L16.5525 15.2115L16.537 11.6083L16.5136 8.00501H16.5131ZM8.4744 13.332V11.1576L7.35684 10.3809C6.73633 9.96136 6.23151 9.58909 6.23151 9.55015C6.23151 9.519 6.77472 9.49564 7.43415 9.49564H8.63679V13.3003H12.3614L12.3537 11.4136L12.3459 9.53458L13.5563 9.51121C14.2235 9.50343 14.7667 9.519 14.7667 9.55015C14.7667 9.58909 14.2546 9.95409 13.6414 10.3809L12.5161 11.142V13.3009L12.2234 13.5314C11.9599 13.7334 11.9625 13.7282 11.4763 14.0776C11.4296 14.1009 11.1998 14.2676 10.9565 14.4426C10.6052 14.6944 10.7235 14.6092 10.4522 14.7764C10.419 14.7967 9.96343 14.4504 9.45135 14.0542" fill="#3F83B5"/>
</g>
</svg>
