<svg width="42" height="46" viewBox="0 0 42 46" fill="none" xmlns="http://www.w3.org/2000/svg">
<g id="Group 26">
<path id="Vector" d="M39.4013 5.57861C34.1661 5.30266 29.2663 4.21245 25.171 2.44013C23.1065 1.55397 22.4019 1.20515 21.4291 0.609514C20.9927 0.333561 20.5899 0.115908 20.5057 0.129511C20.4384 0.129511 19.8684 0.463764 19.2132 0.870892C15.0348 3.44289 8.49019 5.23076 1.87935 5.57959L0 5.68161V13.2237C0 22.2913 0.13464 23.7157 1.35874 27.2186C2.85213 31.4619 5.18477 34.819 8.89299 38.0595C11.9976 40.7772 14.917 42.6078 18.9618 44.3665L20.5057 45.0496L22.1842 44.3665C24.1141 43.596 26.5645 42.3173 28.6615 40.9657C30.6419 39.7016 34.2323 36.533 35.6258 34.8481C37.8238 32.1595 39.8378 28.1193 40.5929 24.8788C41.1965 22.2922 41.2807 20.7803 41.2807 13.1518V5.68258L39.4013 5.58056V5.57861ZM35.6426 29.7459L30.6755 37.3171L20.6067 37.288L10.5378 37.2442L5.67172 29.8324C2.98677 25.7485 0.755107 22.2757 0.721447 22.1008C0.670957 21.8977 0.939115 21.3303 1.47655 20.5024C4.29615 16.1717 10.1519 7.24891 10.337 6.97296L10.5883 6.65328L20.6572 6.68243L30.7429 6.72615L31.3633 7.67061C31.7156 8.19337 33.9305 11.565 36.2968 15.1835C38.6631 18.802 40.6097 21.854 40.6097 21.9551C40.6097 22.0717 38.3781 25.5736 35.6426 29.7439V29.7459Z" fill="white"/>
<path id="Vector_2" d="M33.6685 15.1116L28.3728 12.4226C25.4647 10.9397 22.9253 9.67538 22.724 9.61805C22.5228 9.54516 21.9844 9.29833 21.5302 9.05149C21.0592 8.80466 20.6219 8.60059 20.5387 8.60059C20.4556 8.60059 17.5126 10.069 13.9986 11.8561L7.61019 15.1116L7.5596 21.8703L7.52588 28.6145L14.0154 31.9137L20.5219 35.1984L21.6314 34.661C22.2362 34.3558 22.8252 34.0799 22.9095 34.0507C23.0107 34.0215 25.4815 32.7864 28.4245 31.3035L33.7539 28.6L33.7202 21.8558L33.6696 15.1116H33.6685ZM16.2513 25.0821V21.0122L13.83 19.5585C12.4855 18.7732 11.3917 18.0765 11.3917 18.0036C11.3917 17.9453 12.5687 17.9016 13.9975 17.9016H16.6032V25.0228H24.6733L24.6564 21.4913L24.6395 17.9744L27.2621 17.9307C28.7078 17.9161 29.8847 17.9453 29.8847 18.0036C29.8847 18.0765 28.7752 18.7596 27.4465 19.5585L25.0083 20.9831V25.0238L24.3743 25.4553C23.8032 25.8333 23.8088 25.8236 22.7555 26.4776C22.6543 26.5213 22.1564 26.8332 21.6291 27.1607C20.8681 27.6321 21.1244 27.4727 20.5365 27.7856C20.4645 27.8235 19.4776 27.1753 18.3681 26.4338" fill="white"/>
</g>
</svg>
