<svg width="24" height="24" viewBox="0 0 24 24" fill="none" xmlns="http://www.w3.org/2000/svg">
<path d="M12.0002 2C10.1437 2 8.36318 2.7375 7.05043 4.05025C5.73767 5.36301 5.00017 7.14348 5.00017 9V12.528C5.00032 12.6831 4.96437 12.8362 4.89517 12.975L3.17817 16.408C3.0943 16.5757 3.0547 16.7621 3.06312 16.9494C3.07155 17.1368 3.12773 17.3188 3.22632 17.4783C3.32491 17.6379 3.46265 17.7695 3.62644 17.8608C3.79024 17.9521 3.97465 18 4.16217 18H19.8382C20.0257 18 20.2101 17.9521 20.3739 17.8608C20.5377 17.7695 20.6754 17.6379 20.774 17.4783C20.8726 17.3188 20.9288 17.1368 20.9372 16.9494C20.9457 16.7621 20.906 16.5757 20.8222 16.408L19.1062 12.975C19.0366 12.8362 19.0003 12.6832 19.0002 12.528V9C19.0002 7.14348 18.2627 5.36301 16.9499 4.05025C15.6372 2.7375 13.8567 2 12.0002 2ZM12.0002 21C11.3795 21.0003 10.774 20.8081 10.2672 20.4499C9.76034 20.0917 9.37706 19.5852 9.17017 19H14.8302C14.6233 19.5852 14.24 20.0917 13.7332 20.4499C13.2263 20.8081 12.6208 21.0003 12.0002 21Z" fill="#22A6E8"/>
</svg>
