<svg width="24" height="24" viewBox="0 0 24 24" fill="none" xmlns="http://www.w3.org/2000/svg">
<path fill-rule="evenodd" clip-rule="evenodd" d="M17.1228 13.9265C18.1782 12.5653 18.6756 10.853 18.5138 9.13795C18.352 7.4229 17.5431 5.83392 16.2518 4.69428C14.9605 3.55465 13.2837 2.94996 11.5625 3.00324C9.84133 3.05653 8.2051 3.76377 6.98668 4.9811C5.7672 6.19927 5.05793 7.83679 5.00339 9.55995C4.94886 11.2831 5.55318 12.9622 6.69319 14.2551C7.8332 15.548 9.42311 16.3574 11.1389 16.5183C12.8547 16.6793 14.5673 16.1796 15.9277 15.1212L15.9641 15.1593L19.5544 18.7519C19.633 18.8305 19.7263 18.8929 19.8291 18.9355C19.9318 18.9781 20.042 19 20.1532 19C20.2644 19 20.3745 18.9781 20.4772 18.9355C20.58 18.8929 20.6733 18.8305 20.752 18.7519C20.8306 18.6732 20.893 18.5798 20.9355 18.477C20.9781 18.3742 21 18.2641 21 18.1528C21 18.0416 20.9781 17.9314 20.9355 17.8286C20.893 17.7258 20.8306 17.6325 20.752 17.5538L17.1608 13.9621L17.1228 13.9265ZM15.3657 6.17918C15.8436 6.64951 16.2236 7.20983 16.4839 7.82783C16.7442 8.44583 16.8797 9.10927 16.8824 9.77989C16.8851 10.4505 16.7551 11.115 16.4998 11.7351C16.2445 12.3552 15.8691 12.9186 15.3951 13.3928C14.921 13.867 14.3579 14.2427 13.738 14.498C13.1182 14.7534 12.4539 14.8835 11.7836 14.8807C11.1132 14.878 10.45 14.7425 9.83228 14.4821C9.21453 14.2217 8.65443 13.8415 8.18429 13.3635C7.24476 12.4081 6.72063 11.1201 6.72609 9.77989C6.73154 8.43971 7.26613 7.15598 8.21341 6.20832C9.16069 5.26066 10.4439 4.72586 11.7836 4.7204C13.1232 4.71494 14.4107 5.23928 15.3657 6.17918Z" fill="#B5BBC1"/>
</svg>
