<svg width="20" height="20" viewBox="0 0 20 20" fill="none" xmlns="http://www.w3.org/2000/svg">
<g id="ri:instagram-fill">
<path id="Vector" d="M10.6168 4C11.2918 4.0018 11.6344 4.0054 11.9301 4.0138L12.0465 4.018C12.1809 4.0228 12.3135 4.0288 12.4737 4.036C13.1121 4.066 13.5477 4.1668 13.9298 4.31499C14.3258 4.46739 14.6594 4.67378 14.993 5.00678C15.2982 5.30661 15.5343 5.66944 15.6848 6.06995C15.8329 6.45214 15.9337 6.88773 15.9637 7.52671C15.9709 7.68631 15.9769 7.81891 15.9817 7.9539L15.9853 8.0703C15.9943 8.36549 15.9979 8.70809 15.9991 9.38307L15.9997 9.83066V10.6166C16.0012 11.0543 15.9966 11.4919 15.9859 11.9294L15.9823 12.0458C15.9775 12.1808 15.9715 12.3134 15.9643 12.473C15.9343 13.112 15.8323 13.547 15.6848 13.9298C15.5343 14.3303 15.2982 14.6931 14.993 14.9929C14.6932 15.2981 14.3303 15.5342 13.9298 15.6847C13.5477 15.8329 13.1121 15.9337 12.4737 15.9637L12.0465 15.9817L11.9301 15.9853C11.6344 15.9937 11.2918 15.9979 10.6168 15.9991L10.1692 15.9997H9.38387C8.94605 16.0013 8.50823 15.9967 8.07054 15.9859L7.95414 15.9823C7.81172 15.9769 7.66932 15.9707 7.52696 15.9637C6.8886 15.9337 6.45302 15.8329 6.07024 15.6847C5.66996 15.5342 5.30734 15.2981 5.00769 14.9929C4.70227 14.6932 4.46598 14.3303 4.31533 13.9298C4.16713 13.5476 4.06634 13.112 4.03634 12.473L4.01834 12.0458L4.01534 11.9294C4.00428 11.4919 3.99928 11.0543 4.00034 10.6166V9.38307C3.99868 8.94544 4.00308 8.50781 4.01354 8.0703L4.01774 7.9539C4.02254 7.81891 4.02854 7.68631 4.03574 7.52671C4.06574 6.88773 4.16653 6.45274 4.31473 6.06995C4.46573 5.66928 4.70244 5.30643 5.00829 5.00678C5.30777 4.70171 5.67017 4.46563 6.07024 4.31499C6.45302 4.1668 6.888 4.066 7.52696 4.036C7.68656 4.0288 7.81975 4.0228 7.95414 4.018L8.07054 4.0144C8.50803 4.00374 8.94565 3.99914 9.38327 4.0006L10.6168 4ZM10 6.99993C9.20443 6.99993 8.44141 7.31599 7.87883 7.87859C7.31624 8.44118 7.00019 9.20422 7.00019 9.99986C7.00019 10.7955 7.31624 11.5585 7.87883 12.1211C8.44141 12.6837 9.20443 12.9998 10 12.9998C10.7956 12.9998 11.5587 12.6837 12.1213 12.1211C12.6838 11.5585 12.9999 10.7955 12.9999 9.99986C12.9999 9.20422 12.6838 8.44118 12.1213 7.87859C11.5587 7.31599 10.7956 6.99993 10 6.99993ZM10 8.1999C10.2364 8.19986 10.4705 8.24638 10.6889 8.3368C10.9072 8.42722 11.1057 8.55977 11.2729 8.72688C11.44 8.89399 11.5726 9.0924 11.6631 9.31076C11.7536 9.52913 11.8002 9.76318 11.8002 9.99956C11.8003 10.2359 11.7538 10.47 11.6634 10.6884C11.5729 10.9068 11.4404 11.1052 11.2733 11.2724C11.1062 11.4396 10.9078 11.5722 10.6894 11.6627C10.4711 11.7532 10.237 11.7998 10.0006 11.7998C9.52327 11.7998 9.06546 11.6102 8.72791 11.2726C8.39036 10.9351 8.20073 10.4772 8.20073 9.99986C8.20073 9.52248 8.39036 9.06465 8.72791 8.72709C9.06546 8.38954 9.52327 8.1999 10.0006 8.1999M13.1505 6.09995C12.9516 6.09995 12.7608 6.17896 12.6202 6.31961C12.4795 6.46026 12.4005 6.65102 12.4005 6.84993C12.4005 7.04884 12.4795 7.2396 12.6202 7.38025C12.7608 7.5209 12.9516 7.59991 13.1505 7.59991C13.3494 7.59991 13.5401 7.5209 13.6808 7.38025C13.8214 7.2396 13.9004 7.04884 13.9004 6.84993C13.9004 6.65102 13.8214 6.46026 13.6808 6.31961C13.5401 6.17896 13.3494 6.09995 13.1505 6.09995Z" fill="#B5BBC1"/>
</g>
</svg>
