<svg width="12" height="14" viewBox="0 0 12 14" fill="none" xmlns="http://www.w3.org/2000/svg">
<path id="Vector" fill-rule="evenodd" clip-rule="evenodd" d="M5.49263 13.8097C5.49263 13.8097 0.5 9.61477 0.5 5.4871C0.5 4.03183 1.07946 2.63617 2.11091 1.60714C3.14236 0.578104 4.54131 0 6 0C7.45869 0 8.85764 0.578104 9.88909 1.60714C10.9205 2.63617 11.5 4.03183 11.5 5.4871C11.5 9.61477 6.50737 13.8097 6.50737 13.8097C6.22962 14.0648 5.77244 14.0621 5.49263 13.8097ZM6 7.88771C6.31599 7.88771 6.62889 7.82562 6.92083 7.70497C7.21277 7.58433 7.47803 7.4075 7.70148 7.18459C7.92492 6.96167 8.10216 6.69703 8.22309 6.40577C8.34401 6.11452 8.40625 5.80235 8.40625 5.4871C8.40625 5.17185 8.34401 4.85968 8.22309 4.56843C8.10216 4.27717 7.92492 4.01253 7.70148 3.78962C7.47803 3.5667 7.21277 3.38987 6.92083 3.26923C6.62889 3.14859 6.31599 3.08649 6 3.08649C5.36182 3.08649 4.74978 3.33942 4.29852 3.78962C3.84727 4.23982 3.59375 4.85042 3.59375 5.4871C3.59375 6.12378 3.84727 6.73439 4.29852 7.18459C4.74978 7.63479 5.36182 7.88771 6 7.88771Z" fill="#B5BBC1"/>
</svg>
