<svg width="20" height="20" viewBox="0 0 20 20" fill="none" xmlns="http://www.w3.org/2000/svg">
<g id="mingcute:time-fill">
<g id="Group">
<path id="Vector" d="M10.8671 17.1671L10.8603 17.1683L10.8163 17.19L10.8039 17.1925L10.7953 17.19L10.7513 17.1683C10.7447 17.1663 10.7397 17.1673 10.7364 17.1714L10.7339 17.1776L10.7234 17.4427L10.7265 17.4551L10.7327 17.4632L10.7971 17.509L10.8064 17.5115L10.8138 17.509L10.8783 17.4632L10.8857 17.4533L10.8882 17.4427L10.8776 17.1783C10.876 17.1716 10.8725 17.1679 10.8671 17.1671ZM11.0312 17.0971L11.0232 17.0984L10.9086 17.156L10.9024 17.1621L10.9005 17.169L10.9117 17.4353L10.9148 17.4427L10.9198 17.4471L11.0442 17.5047C11.0521 17.5067 11.0581 17.5051 11.0622 17.4997L11.0647 17.491L11.0436 17.1107C11.0416 17.1033 11.0374 17.0988 11.0312 17.0971ZM10.5884 17.0984C10.5856 17.0967 10.5824 17.0962 10.5793 17.0969C10.5762 17.0975 10.5734 17.0994 10.5717 17.1021L10.5679 17.1107L10.5469 17.491C10.5473 17.4985 10.5508 17.5034 10.5574 17.5059L10.5667 17.5047L10.6912 17.4471L10.6974 17.4421L10.6999 17.4353L10.7104 17.169L10.7085 17.1615L10.7023 17.1553L10.5884 17.0984Z" fill="#B5BBC1"/>
<path id="Vector_2" d="M10.1939 4C13.6149 4 16.3879 6.77303 16.3879 10.1939C16.3879 13.6149 13.6149 16.3879 10.1939 16.3879C6.77303 16.3879 4 13.6149 4 10.1939C4 6.77303 6.77303 4 10.1939 4ZM10.1939 6.47758C10.0297 6.47758 9.87213 6.54284 9.75597 6.659C9.63981 6.77516 9.57455 6.9327 9.57455 7.09697V10.1939C9.57459 10.3582 9.63987 10.5157 9.75604 10.6319L11.6142 12.49C11.731 12.6029 11.8875 12.6653 12.0499 12.6639C12.2123 12.6625 12.3677 12.5973 12.4825 12.4825C12.5973 12.3677 12.6625 12.2123 12.6639 12.0499C12.6653 11.8875 12.6029 11.731 12.49 11.6142L10.8133 9.93752V7.09697C10.8133 6.9327 10.7481 6.77516 10.6319 6.659C10.5158 6.54284 10.3582 6.47758 10.1939 6.47758Z" fill="#B5BBC1"/>
</g>
</g>
</svg>
